<?xml version="1.0" standalone="no"?>
<!DOCTYPE svg PUBLIC "-//W3C//DTD SVG 20010904//EN"
 "http://www.w3.org/TR/2001/REC-SVG-20010904/DTD/svg10.dtd">
<svg version="1.0" xmlns="http://www.w3.org/2000/svg"
 width="703.000000pt" height="421.000000pt" viewBox="0 0 703.000000 421.000000"
 preserveAspectRatio="xMidYMid meet">

<g transform="translate(0.000000,421.000000) scale(0.100000,-0.100000)"
fill="#000000" stroke="none">
<path d="M2617 4190 c-88 -23 -152 -69 -208 -150 -13 -19 -52 -68 -87 -108
-81 -93 -95 -126 -86 -202 l6 -59 -68 -84 c-38 -47 -82 -101 -98 -122 -34 -44
-79 -65 -141 -65 -35 0 -50 -5 -64 -22 -97 -116 -170 -208 -179 -224 -16 -30
12 -78 93 -160 68 -69 192 -151 263 -175 43 -14 38 -19 228 217 84 105 162
198 173 208 17 16 107 46 138 46 12 0 611 -473 625 -494 10 -15 5 -20 -74 -76
-65 -45 -77 -50 -126 -50 -64 0 -64 0 -210 -107 l-117 -85 -95 5 c-73 5 -1204
86 -1683 121 -40 3 -67 1 -65 -4 2 -6 172 -215 378 -465 232 -282 392 -485
419 -533 76 -133 128 -205 198 -274 85 -84 116 -108 140 -108 10 0 117 82 238
181 121 100 401 330 623 512 222 181 409 342 417 358 8 15 15 37 15 48 0 37
13 51 127 143 98 78 118 90 133 80 51 -31 219 -175 224 -190 2 -9 7 -33 10
-53 6 -33 31 -57 279 -260 149 -123 429 -354 621 -512 192 -159 359 -293 372
-299 30 -14 69 10 156 99 86 87 139 159 183 248 25 49 98 147 241 320 113 138
285 347 381 465 97 118 183 223 192 233 15 18 13 18 -54 13 -151 -14 -1718
-126 -1753 -126 -31 0 -59 16 -170 96 -134 97 -134 97 -190 95 -60 -1 -64 1
-161 72 -28 22 -48 43 -45 49 8 13 602 488 619 494 7 3 41 -2 74 -12 71 -20
72 -20 279 -277 79 -98 150 -181 158 -184 18 -7 126 44 201 95 67 46 159 141
188 195 19 36 19 37 0 61 -11 13 -51 64 -90 114 -80 102 -109 124 -174 127
-25 1 -51 3 -58 4 -7 0 -47 44 -90 97 -43 53 -89 110 -103 127 -23 27 -25 38
-23 112 l2 82 -50 59 c-28 33 -71 86 -96 119 -94 123 -135 154 -238 181 -74
20 -208 17 -301 -6 -81 -21 -266 -103 -286 -127 -23 -28 9 -38 115 -38 89 0
108 -3 150 -25 109 -55 192 -185 192 -300 0 -102 -26 -145 -138 -227 -51 -36
-210 -153 -353 -260 -144 -106 -269 -193 -278 -193 -9 0 -85 51 -169 113 -83
62 -237 175 -342 251 -104 76 -200 150 -212 164 -12 14 -30 54 -39 89 -15 54
-15 71 -5 118 21 93 107 205 194 252 26 15 54 18 144 17 104 -2 113 0 119 18
3 11 4 21 2 23 -14 14 -197 97 -253 115 -78 25 -271 36 -338 20z m109 -83
c-68 -43 -129 -104 -236 -237 -67 -82 -125 -150 -130 -150 -15 0 -22 77 -10
101 7 12 57 75 111 140 96 114 102 119 162 138 34 11 76 20 92 20 27 0 28 -1
11 -12z m1720 -22 c17 -7 49 -35 72 -61 22 -27 67 -81 100 -119 33 -39 63 -81
67 -94 8 -26 -2 -91 -14 -91 -5 0 -46 48 -92 108 -46 59 -124 148 -174 198
l-91 91 51 -10 c27 -5 64 -15 81 -22z m-2106 -530 c0 -50 -4 -58 -42 -103 -24
-27 -53 -60 -65 -75 -21 -25 -74 -43 -106 -35 -11 2 16 42 91 135 59 73 110
133 115 133 4 0 7 -25 7 -55z m2475 -80 c110 -136 113 -144 39 -130 -26 4 -48
23 -99 83 -62 74 -65 79 -65 130 0 31 4 52 10 50 5 -1 57 -61 115 -133z
m-1797 -205 c141 -104 390 -288 552 -408 162 -120 294 -222 293 -227 -2 -6
-16 -10 -32 -10 -23 0 -145 88 -565 404 -295 222 -536 407 -536 411 0 9 12 20
22 20 5 0 125 -85 266 -190z m1279 174 c2 -7 -96 -87 -219 -180 -123 -93 -272
-206 -332 -252 -104 -79 -151 -99 -151 -64 0 16 666 511 684 509 8 -1 16 -7
18 -13z m-2283 -142 c4 -7 -128 -182 -138 -182 -1 0 -16 11 -31 24 l-28 24 52
65 c28 36 57 68 64 70 20 9 75 8 81 -1z m3124 -39 c72 -77 78 -90 57 -113 -10
-11 -25 -20 -34 -20 -19 0 -153 158 -145 171 3 5 21 9 41 9 31 0 44 -8 81 -47z
m-1819 -550 c7 -14 -2 -25 -50 -59 -56 -39 -90 -47 -104 -24 -6 10 113 100
131 100 7 0 17 -8 23 -17z m-277 -182 c4 -3 -88 -79 -205 -167 -860 -654
-1019 -774 -1026 -774 -15 0 -42 51 -39 73 2 16 158 133 593 445 325 233 599
427 610 432 20 8 53 4 67 -9z m1610 -412 c331 -237 607 -435 611 -439 11 -9
-21 -80 -38 -86 -7 -3 -252 178 -546 402 -294 223 -569 432 -611 463 -42 31
-77 61 -77 68 -1 11 16 19 46 22 6 0 283 -193 615 -430z"/>
<path d="M592 2448 c-293 -269 -581 -543 -574 -546 8 -2 256 133 480 263 63
36 88 45 102 39 10 -5 184 -227 385 -494 202 -267 375 -493 385 -504 16 -17
35 -18 200 -18 100 0 184 2 187 5 3 3 -127 169 -289 369 -162 200 -399 494
-528 653 -224 279 -246 305 -262 305 -4 0 -43 -33 -86 -72z"/>
<path d="M6319 2493 c-29 -32 -172 -209 -748 -924 -113 -140 -227 -280 -254
-312 -27 -32 -47 -60 -44 -63 2 -3 86 -6 185 -6 134 -2 184 1 196 11 8 7 97
120 196 251 99 132 253 335 343 453 89 118 177 235 194 261 38 53 60 58 113
23 19 -13 134 -79 255 -147 121 -68 230 -130 243 -138 58 -37 6 18 -170 183
-106 99 -224 210 -263 246 -171 162 -201 188 -211 189 -5 0 -22 -12 -35 -27z"/>
<path d="M382 1718 l3 -63 55 0 55 0 3 63 3 62 -61 0 -61 0 3 -62z"/>
<path d="M562 1718 l3 -63 55 0 55 0 3 63 3 62 -61 0 -61 0 3 -62z"/>
<path d="M3230 1660 l0 -121 118 3 117 3 0 115 0 115 -117 3 -118 3 0 -121z"/>
<path d="M3570 1660 l0 -120 115 0 115 0 0 120 0 120 -115 0 -115 0 0 -120z"/>
<path d="M6352 1718 l3 -63 51 -3 c63 -4 76 10 72 75 l-3 48 -63 3 -63 3 3
-63z"/>
<path d="M6532 1718 l3 -63 55 0 55 0 3 63 3 62 -61 0 -61 0 3 -62z"/>
<path d="M387 1603 c-4 -3 -7 -33 -7 -65 l0 -58 60 0 60 0 0 65 0 65 -53 0
c-30 0 -57 -3 -60 -7z"/>
<path d="M560 1545 l0 -66 58 3 57 3 0 60 0 60 -57 3 -58 3 0 -66z"/>
<path d="M6354 1597 c-3 -8 -4 -36 -2 -63 l3 -49 60 0 60 0 0 60 0 60 -58 3
c-42 2 -59 -1 -63 -11z"/>
<path d="M6530 1545 l0 -66 58 3 57 3 0 60 0 60 -57 3 -58 3 0 -66z"/>
<path d="M3234 1437 c-2 -7 -3 -62 -2 -123 l3 -109 115 0 115 0 0 120 0 120
-113 3 c-87 2 -114 0 -118 -11z"/>
<path d="M3570 1325 l0 -125 115 0 115 0 0 125 0 125 -115 0 -115 0 0 -125z"/>
<path d="M2755 1145 c-16 -36 -31 -55 -42 -56 -10 0 -499 -1 -1088 -2 l-1070
-2 -65 -29 c-36 -16 -69 -33 -74 -37 -5 -4 20 -22 55 -41 l64 -33 1099 -5
1098 -5 17 -45 c22 -60 50 -73 136 -64 50 5 68 11 76 26 27 50 26 278 -1 329
-9 16 -22 19 -96 19 l-85 0 -24 -55z"/>
<path d="M4068 1173 c-17 -38 -17 -291 -1 -319 10 -18 24 -22 85 -26 86 -6
111 5 128 57 6 19 20 40 30 45 12 6 400 10 1089 10 1056 0 1071 0 1125 21 30
11 65 28 77 38 21 17 21 17 -42 52 l-64 34 -1098 5 -1099 5 -14 40 c-19 56
-36 65 -126 65 -76 0 -79 -1 -90 -27z"/>
<path d="M380 590 c0 -5 5 -10 10 -10 6 0 10 -93 10 -259 0 -163 -4 -262 -10
-266 -26 -16 -3 -25 65 -25 43 0 75 4 75 10 0 6 -4 10 -10 10 -16 0 -21 60
-18 215 l3 150 93 -189 c51 -104 94 -187 96 -185 2 2 46 87 97 189 l94 185 3
-174 c1 -110 -1 -178 -8 -185 -21 -21 -8 -26 65 -26 68 0 91 9 65 25 -14 8
-14 512 0 520 28 17 1 25 -85 25 -89 0 -94 -1 -84 -18 9 -14 -3 -46 -62 -170
-39 -83 -75 -152 -78 -152 -3 0 -13 17 -22 38 -9 20 -41 88 -70 150 -45 97
-51 116 -41 132 12 19 9 20 -88 20 -60 0 -100 -4 -100 -10z"/>
<path d="M4253 582 c15 -16 17 -50 17 -267 0 -217 -2 -251 -17 -267 -15 -17
-13 -18 60 -18 70 0 93 9 67 25 -6 4 -10 75 -9 183 l0 177 93 -190 93 -190 96
190 96 190 0 -177 c1 -108 -3 -179 -9 -183 -27 -16 -3 -25 70 -25 44 0 80 4
80 9 0 5 -6 11 -12 13 -10 4 -14 66 -16 255 -3 216 -1 253 13 266 8 9 15 18
15 21 0 3 -43 6 -95 6 -95 0 -95 0 -90 -23 4 -16 -15 -68 -65 -172 -82 -173
-66 -175 -158 23 -64 136 -69 152 -52 152 6 0 10 5 10 10 0 6 -41 10 -102 10
-97 0 -100 -1 -85 -18z"/>
<path d="M1630 456 c0 -57 2 -67 14 -57 9 8 49 11 115 9 l101 -3 -120 -177
c-66 -97 -120 -181 -120 -187 0 -8 60 -11 193 -11 137 0 196 -3 205 -12 9 -9
12 3 12 57 0 54 -3 66 -12 57 -8 -8 -49 -12 -121 -12 l-108 0 120 178 c67 98
121 183 121 190 0 9 -48 12 -188 12 -133 0 -192 4 -200 12 -9 9 -12 -3 -12
-56z"/>
<path d="M5160 455 c0 -54 3 -66 12 -57 7 7 40 12 80 12 l68 0 0 -174 c0 -106
-4 -177 -10 -181 -26 -16 -4 -25 60 -25 64 0 86 9 60 25 -6 4 -10 75 -10 181
l0 174 70 0 c40 0 70 -4 70 -10 0 -5 5 -10 10 -10 6 0 10 28 10 65 0 37 -4 65
-10 65 -5 0 -10 -4 -10 -10 0 -15 -373 -13 -388 2 -9 9 -12 -3 -12 -57z"/>
<path d="M2782 495 c-58 -18 -108 -58 -134 -108 -18 -33 -23 -59 -23 -122 0
-70 4 -86 28 -128 35 -58 86 -94 159 -109 192 -40 340 124 284 316 -38 128
-175 195 -314 151z m148 -94 c48 -25 74 -73 74 -136 0 -95 -65 -161 -151 -152
-57 6 -91 30 -114 80 -25 55 -24 93 4 147 37 74 115 100 187 61z"/>
<path d="M3337 499 c-131 -31 -204 -171 -163 -311 28 -98 125 -168 231 -168
48 0 122 25 161 55 56 43 79 97 79 190 0 63 -5 89 -23 122 -50 95 -166 140
-285 112z m149 -104 c39 -25 68 -98 60 -153 -16 -121 -153 -174 -235 -91 -74
73 -58 208 30 252 41 21 107 17 145 -8z"/>
<path d="M1250 495 c0 -3 5 -13 11 -23 9 -14 -6 -56 -76 -215 -49 -110 -94
-201 -101 -204 -34 -13 -8 -23 61 -23 67 0 97 11 63 23 -10 3 -10 13 2 48 l15
44 97 3 97 3 16 -30 c17 -34 20 -71 5 -71 -5 0 -10 -4 -10 -10 0 -6 35 -10 85
-10 47 0 85 3 85 6 0 3 -9 13 -19 22 -23 20 -191 374 -191 402 0 11 5 20 10
20 6 0 10 5 10 10 0 6 -33 10 -80 10 -44 0 -80 -2 -80 -5z m104 -204 c14 -32
26 -64 26 -70 0 -7 -23 -11 -61 -11 -69 0 -66 -7 -26 87 12 29 25 53 28 53 4
0 18 -26 33 -59z"/>
<path d="M2100 492 c0 -6 5 -14 10 -17 6 -4 10 -85 10 -210 0 -125 -4 -206
-10 -210 -5 -3 -10 -11 -10 -17 0 -16 318 -6 350 11 39 21 80 63 95 97 37 89
21 230 -33 287 -52 55 -74 61 -249 65 -109 3 -163 1 -163 -6z m308 -98 c77
-54 68 -233 -14 -264 -14 -6 -59 -10 -100 -10 l-74 0 0 145 0 145 83 0 c59 0
89 -5 105 -16z"/>
<path d="M3724 478 c13 -18 16 -57 16 -213 0 -156 -3 -195 -16 -213 l-15 -22
75 0 c44 0 76 4 76 10 0 6 -4 10 -10 10 -6 0 -10 35 -10 85 l0 85 49 0 49 0
46 -74 c46 -74 54 -96 36 -96 -5 0 -10 -4 -10 -10 0 -6 37 -10 93 -10 l92 0
-27 23 c-21 18 -118 158 -118 171 0 2 14 9 30 16 17 7 42 26 56 43 23 27 26
38 22 89 -5 67 -31 102 -87 118 -20 5 -109 10 -199 10 l-163 0 15 -22z m324
-80 c19 -19 15 -66 -7 -78 -11 -5 -60 -10 -110 -10 l-91 0 0 50 0 50 98 0 c63
0 102 -4 110 -12z"/>
<path d="M4970 490 c0 -5 5 -10 10 -10 6 0 10 -78 10 -215 0 -137 -4 -215 -10
-215 -5 0 -10 -4 -10 -10 0 -6 32 -10 76 -10 l75 0 -15 22 c-13 18 -16 57 -16
213 0 156 3 195 16 213 l15 22 -75 0 c-44 0 -76 -4 -76 -10z"/>
<path d="M5620 494 c0 -3 7 -12 15 -20 12 -13 15 -50 15 -209 0 -159 -3 -196
-15 -209 -8 -8 -15 -17 -15 -20 0 -3 34 -6 75 -6 43 0 75 4 75 10 0 6 -4 10
-10 10 -6 0 -10 35 -10 85 l0 85 49 0 48 0 47 -75 c47 -77 54 -95 36 -95 -5 0
-10 -4 -10 -10 0 -6 37 -10 93 -10 l92 0 -27 23 c-36 30 -124 170 -110 175 27
9 78 50 90 72 8 15 11 46 9 78 -5 64 -33 99 -93 112 -42 10 -354 14 -354 4z
m340 -103 c32 -60 1 -81 -116 -81 l-94 0 0 50 0 50 100 0 c88 0 100 -2 110
-19z"/>
<path d="M6314 478 c14 -21 10 -34 -53 -178 -106 -243 -109 -250 -120 -250 -6
0 -11 -4 -11 -10 0 -6 32 -10 75 -10 43 0 75 4 75 10 0 6 -4 10 -10 10 -15 0
-12 37 5 70 15 30 16 30 109 30 l93 0 18 -40 c14 -31 16 -43 7 -52 -23 -23
-11 -28 76 -28 74 1 84 3 69 14 -19 15 -185 355 -194 398 -3 16 0 34 7 43 11
13 2 15 -74 15 l-86 0 14 -22z m100 -189 c14 -33 26 -65 26 -70 0 -5 -27 -9
-60 -9 -33 0 -60 3 -60 8 0 15 53 132 60 132 4 0 19 -27 34 -61z"/>
</g>
</svg>
